# xmcd CD database file
#
# Track frame offsets:
#	150
#	26155
#	48165
#	71876
#	97267
#	121218
#	142486
#	163648
#	184647
#	202532
#
# Disc length: 2973 seconds
#
# Revision: 1
# Processed by: cddbd v1.5.1PL0 Copyright (c) Steve Scherf et al.
# Submitted via: CDex 1.51
#
DISCID=900b9b0a
DTITLE=New Age Academy - New Age of Classics - desolate destinations
DYEAR=1900
DGENRE=New Age
TTITLE0=Gabriel Faure - Requiem aeternam (from 'Requiem')
TTITLE1=Edvard, Grieg - Ases death (from 'Peer Gynt Suite No 1')
TTITLE2=Peter Ilyich Tchaikovsky - Lamentoso (from 'Symhony No. 6 "Pathetique")
TTITLE3=Edvard, Grieg - Hearts Wound (from 'Elegiac Melody No. 2')
TTITLE4=Frederic Chopin - Marche funebre
TTITLE5=Jean Sibelius - Valse triste
TTITLE6=Johann Sebastian Bach - Wir setzen uns mit Tränen nieder (from 'St. Matthew Passion')
TTITLE7=Franz Schubert - Theme (from 'Sting Quartet "Death and the Malden" ')
TTITLE8=Bas Fortgens - Beyond Horizon
TTITLE9=Leonard Bernstein - One hands (from 'West Side Story')
EXTD=
EXTT0=
EXTT1=
EXTT2=
EXTT3=
EXTT4=
EXTT5=
EXTT6=
EXTT7=
EXTT8=
EXTT9=
PLAYORDER=
